<?xml version="1.0" encoding="utf-8"?>
<!-- Generator: Adobe Illustrator 19.0.0, SVG Export Plug-In . SVG Version: 6.00 Build 0)  -->
<svg version="1.1" id="layer" xmlns="http://www.w3.org/2000/svg" xmlns:xlink="http://www.w3.org/1999/xlink" x="0px" y="0px"
	 viewBox="-153 -46 652 652" style="enable-background:new -153 -46 652 652;" xml:space="preserve">
<style type="text/css">
	.st0{fill:#008739;}
	.st1{fill:#E30613;}
	.st2{fill:#191B1C;}
</style>
<g id="Page-1">
	<g id="_x34_0-years-logo-for-website-2-01">
		<path id="Path" class="st0" d="M300.5,291.4c0,0-6.9,1.4-33.4,1.4c-15.1-0.3-29.6,5.6-40.2,16.2c-10.7,10.7-16.5,25.2-16.2,40.2
			c0,3,0.2,5.9,0.6,8.8L300.5,291.4z"/>
		<path id="Path_1_" class="st1" d="M375,217.6c-28.8,2-50.7-2.7-67.7-4.9c-17-2.3-16.2,10.2-18.8,23.6c-3.8,17.1-9.8,33.5-17.9,49
			c17.9,0.7,35.9-0.2,53.6-2.7c84.3-12.4,144.1-89.8,144.1-89.8C426.7,211.5,403.8,215.7,375,217.6"/>
		<polygon id="Path_2_" class="st2" points="-51.9,334.4 -131.7,334.4 -131.7,226.5 -52.7,226.5 -52.7,241 -116.2,241 -116.2,272.8 
			-59.4,272.8 -59.4,287.2 -116.2,287.2 -116.2,319.9 -51.9,319.9 		"/>
		<path id="Path_3_" class="st2" d="M18.2,336.2c-32.3,0-54.8-22.8-54.8-55.7c0-31.3,23.9-55.9,54.1-55.9c14.7-0.6,29,4.6,40,14.4
			l1.5,1.2l-10,11.8l-1.4-1.2c-8.2-7.7-19.2-11.8-30.5-11.5c-21.2,0-37.7,18-37.7,41c0,24.9,15.9,41.6,39.3,41.6
			c10.2,0,20.1-3.3,28.2-9.4v-23.2H15V275h46.8v44.3l-0.6,0.6C49.4,330.4,34.1,336.3,18.2,336.2"/>
		<path id="Shape" class="st2" d="M186.3,334.4h-16.8l-12.2-27.5h-54.2l-12.4,27.5H74.7l49.1-108.7h13.4L186.3,334.4z M109.5,292.6
			h41.7l-20.8-46.6L109.5,292.6z"/>
	</g>
</g>
</svg>
